<?xml version="1.0" encoding="utf-8"?>
<svg xmlns="http://www.w3.org/2000/svg" height="256" width="256" viewBox="0 0 256 256">
  <g>
    <path id="path1" transform="rotate(0,128,128) translate(0,41.656005859375) scale(8,8)  " fill="#2FFF07" d="M14.383002,16.928996L25.511003,16.928996 25.511003,18.256991 14.383002,18.256991z M8.5250001,14.626995C10.397002,15.110996,11.881999,16.551997,12.428,18.395998L1.8530006,18.395998C2.3880002,16.601992 3.8059993,15.194995 5.6039996,14.672992 5.7499995,15.595996 6.3459997,16.289996 7.0609999,16.289996 7.788001,16.289996 8.3939996,15.573993 8.5250001,14.626995z M18.892,13.065999L25.467996,13.065999 25.467996,14.395999 18.892,14.395999z M7.0870008,10.564999C8.144999,10.564999 9.0010018,11.421994 9.0010018,12.477993 9.0010018,13.534999 8.144999,14.389995 7.0870008,14.389995 6.0310016,14.389995 5.1770015,13.534999 5.1770015,12.477993 5.1770015,11.421994 6.0310016,10.564999 7.0870008,10.564999z M0,4.0350027L20.799997,4.0350027 20.349,4.4859991 20.979997,5.1169953 1.050003,5.1169953 1.050003,20.440997 26.263002,20.440997 26.263002,8.5329947 27.436998,7.3589992 27.436998,21.585999 0,21.585999z M30.416,0L32,1.5849986 25.327997,8.2559943 25.324998,8.2519965 21.558,4.4859991 23.142999,2.9019999 25.327997,5.0869965z" />
  </g>
</svg>

