<?xml version="1.0" encoding="utf-8"?>
<svg xmlns="http://www.w3.org/2000/svg" height="256" width="256" viewBox="0 0 256 256">
  <g>
    <path id="path1" transform="rotate(0,128,128) translate(0.0039519029380557,0) scale(7.99975014513278,7.99975014513278)  " fill="#00FCEF" d="M26.000001,26.000999L32.000001,26.000999 32.000001,32.000999 26.000001,32.000999z M0,26.000999L6,26.000999 6,32.000999 0,32.000999z M12.00001,12L12.00001,20.000001 20.001021,20.000001 20.001021,12z M0,0.00099805132L6,0.00099805132 6,6.0009981 0,6.0009981z M26.000009,0.00099471335L32.00001,0.00099471335 32.00001,6.0009947 26.000009,6.0009947z M8.0010204,0L22.001021,0 22.001021,10 32.000009,10 32.000009,24.000001 30.00001,24.000001 30.00001,12 22.001021,12 22.001021,22.000001 12.00001,22.000001 12.00001,30.000001 24.000009,30.000001 24.000009,32.000001 10.00001,32.000001 10.00001,22.000001 0.0010204315,22.000001 0.0010204315,8.0000001 2.0010204,8.0000001 2.0010204,20.000001 10.00001,20.000001 10.00001,10 20.001021,10 20.001021,1.9999999 8.0010204,1.9999999z" />
  </g>
</svg>

